<?xml version="1.0" encoding="UTF-8"?> <svg xmlns="http://www.w3.org/2000/svg" id="Capa_1" height="479pt" viewBox="0 -1 479.10719 479" width="479pt"> <path d="M144 237.2a39.883 39.883 0 0 0-28 11.51c-15.68-15.452-40.902-15.331-56.43.274-15.53 15.606-15.53 40.825 0 56.43 15.528 15.606 40.75 15.727 56.43.274 12.875 12.69 32.66 15.167 48.27 6.042 15.605-9.125 23.152-27.582 18.406-45.027-4.742-17.445-20.598-29.539-38.676-29.504zm-56 64c-13.254 0-24-10.747-24-24 0-13.255 10.746-24 24-24s24 10.745 24 24c0 13.253-10.746 24-24 24zm56 0a23.737 23.737 0 0 1-18.824-9.49 38.695 38.695 0 0 0 0-29.023A23.749 23.749 0 0 1 144 253.2c13.254 0 24 10.746 24 24s-10.746 24-24 24zm0 0"></path> <path d="M473.809 324.8L432 252.399V229.2c-.066-20.586-15.777-37.746-36.281-39.625L297.8 19.977C286.68.914 262.26-5.602 243.12 5.383l-180.066 104c-19.149 11.023-25.73 35.488-14.703 54.633l14.578 25.183H40c-22.082.028-39.973 17.918-40 40v208c.027 22.082 17.918 39.973 40 40h352c22.082-.027 39.973-17.918 40-40v-42.031l27.129-15.688c19.082-11.101 25.637-35.515 14.68-54.68zM251.129 19.247c11.48-6.59 26.129-2.68 32.8 8.754l93.094 161.2h-96.671c4.27-.821 8.37-2.34 12.144-4.497a40.006 40.006 0 0 0 19.707-39.687 40.007 40.007 0 0 0-28.996-33.512c5.492-21.305-7.258-43.047-28.531-48.656-21.274-5.614-43.086 7.007-48.82 28.25-5.735 21.238 6.761 43.125 27.968 48.98a39.738 39.738 0 0 0 4.813 31.27 39.747 39.747 0 0 0 26.117 17.851h-72.54l-58.87-101.93zm-27.418 94.32c-6.613-11.48-2.672-26.152 8.809-32.77 11.476-6.62 26.148-2.683 32.773 8.794 6.625 11.476 2.695 26.148-8.781 32.777a23.983 23.983 0 0 1-18.223 2.399 23.995 23.995 0 0 1-14.578-11.2zm26.77 27.528a39.69 39.69 0 0 0 25.44-14.813 23.409 23.409 0 0 1 17.36 11.774c6.625 11.488 2.688 26.172-8.8 32.8-11.489 6.63-26.172 2.688-32.801-8.8a23.763 23.763 0 0 1-1.2-20.961zM136.8 189.199l-44.977-77.945 27.68-16 54.238 93.945zm-74.594-33.191c-6.605-11.477-2.668-26.14 8.8-32.762l6.915-4 40.383 69.953h-36.89zM416 437.199c0 13.254-10.746 24-24 24H40c-13.254 0-24-10.746-24-24v-8h400zm0-24H16v-32h400zm0-48H16v-136c0-13.254 10.746-24 24-24h352c13.254 0 24 10.746 24 24zm35.121.442L432 376.695v-92.297l27.938 48.38c6.582 11.515 2.644 26.183-8.817 32.863zm0 0"></path> <defs> <linearGradient id="Gradient1"> <stop class="stop1" offset="0%"></stop> <stop class="stop2" offset="100%"></stop> </linearGradient> </defs> <style>#Capa_1{fill:url(#Gradient1)}.stop1{stop-color:#2db4db}.stop2{stop-color:#333ecd}</style> </svg> 