<?xml version="1.0" encoding="iso-8859-1"?>
<!-- Generator: Adobe Illustrator 19.0.0, SVG Export Plug-In . SVG Version: 6.00 Build 0)  -->
<svg version="1.1" id="Capa_1" xmlns="http://www.w3.org/2000/svg" xmlns:xlink="http://www.w3.org/1999/xlink" x="0px" y="0px"
	 viewBox="0 0 512 512" style="enable-background:new 0 0 512 512;" xml:space="preserve">
<g>
	<g>
		<path d="M256,121c-39.299,0-135,5.428-135,45c0,39.562,95.699,45,135,45c39.299,0,135-5.428,135-45
			C391,126.438,295.301,121,256,121z M256,181c-28.072,0-76.886-3.242-100.662-15c23.73-11.736,72.306-15,100.662-15
			c28.056,0,76.887,3.241,100.662,15C332.837,177.784,284.047,181,256,181z"/>
	</g>
</g>
<g>
	<g>
		<path d="M487.329,134.052C438.013,78.544,331.699,61,256,61c-76.131,0-182.251,17.812-231.329,73.052C8.3,152.478,0,173.32,0,196
			v120c0,8.284,6.716,15,15,15s15-6.716,15-15v-52.436c48.633,48.24,141.909,65.331,211,67.223V436c0,8.284,6.716,15,15,15
			s15-6.716,15-15V330.787c69.109-1.892,162.418-19.033,211-67.223V316c0,8.284,6.716,15,15,15s15-6.716,15-15V196
			C512,173.32,503.699,152.478,487.329,134.052z M256,91c115.616,0,196,40.139,196,75c0,34.826-80.302,75-196,75
			c-114.912,0-196-39.862-196-75C60,131.169,140.277,91,256,91z M256,301c-109.559,0-226-36.8-226-105
			c0-5.279,0.701-10.369,2.039-15.27c6.833,24.499,30.76,46.39,69.092,62.71C142.872,261.213,197.872,271,256,271
			c107.605,0,208.372-34.379,223.961-90.27c1.338,4.9,2.039,9.99,2.039,15.27C482,264.2,365.56,301,256,301z"/>
	</g>
</g>
<g>
</g>
<g>
</g>
<g>
</g>
<g>
</g>
<g>
</g>
<g>
</g>
<g>
</g>
<g>
</g>
<g>
</g>
<g>
</g>
<g>
</g>
<g>
</g>
<g>
</g>
<g>
</g>
<g>
</g>
</svg>
