<svg>
          <symbol id="scooter" viewBox="0 0 512 512" xmlns="http://www.w3.org/2000/svg">
               <g>
                    <path d="m451.849 366.282-64.371-347.753h-80.426v30h55.469l43.065 232.646-53.575 98.251h-249.57c-10.749-8.293-24.202-13.244-38.797-13.244-35.094.001-63.644 28.551-63.644 63.644 0 35.094 28.55 63.645 63.644 63.645 19.181 0 36.393-8.541 48.071-22.006h224.279l78.251-143.508 8.108 43.803c-22.162 9.964-37.641 32.235-37.641 58.066 0 35.094 28.551 63.645 63.644 63.645s63.644-28.551 63.644-63.645c0-33.92-26.677-61.723-60.151-63.544zm-388.205 97.189c-18.552 0-33.644-15.093-33.644-33.645 0-18.551 15.092-33.644 33.644-33.644s33.644 15.093 33.644 33.644c-.001 18.552-15.093 33.645-33.644 33.645zm62.558-22.006c.701-3.776 1.085-7.662 1.085-11.639 0-7.135-1.198-13.991-3.373-20.399h211.737l-17.47 32.038zm322.154 22.006c-18.551 0-33.644-15.093-33.644-33.645 0-18.551 15.093-33.644 33.644-33.644s33.644 15.093 33.644 33.644c0 18.552-15.093 33.645-33.644 33.645z" />
               </g>
          </symbol>
          <symbol id="trampolin" viewBox="0 0 512 512" xmlns="http://www.w3.org/2000/svg">
               <g>
                    <g>
                         <path d="M256,121c-39.299,0-135,5.428-135,45c0,39.562,95.699,45,135,45c39.299,0,135-5.428,135-45
                              C391,126.438,295.301,121,256,121z M256,181c-28.072,0-76.886-3.242-100.662-15c23.73-11.736,72.306-15,100.662-15
                              c28.056,0,76.887,3.241,100.662,15C332.837,177.784,284.047,181,256,181z" />
                    </g>
               </g>
               <g>
                    <g>
                         <path d="M487.329,134.052C438.013,78.544,331.699,61,256,61c-76.131,0-182.251,17.812-231.329,73.052C8.3,152.478,0,173.32,0,196
                              v120c0,8.284,6.716,15,15,15s15-6.716,15-15v-52.436c48.633,48.24,141.909,65.331,211,67.223V436c0,8.284,6.716,15,15,15
                              s15-6.716,15-15V330.787c69.109-1.892,162.418-19.033,211-67.223V316c0,8.284,6.716,15,15,15s15-6.716,15-15V196
                              C512,173.32,503.699,152.478,487.329,134.052z M256,91c115.616,0,196,40.139,196,75c0,34.826-80.302,75-196,75
                              c-114.912,0-196-39.862-196-75C60,131.169,140.277,91,256,91z M256,301c-109.559,0-226-36.8-226-105
                              c0-5.279,0.701-10.369,2.039-15.27c6.833,24.499,30.76,46.39,69.092,62.71C142.872,261.213,197.872,271,256,271
                              c107.605,0,208.372-34.379,223.961-90.27c1.338,4.9,2.039,9.99,2.039,15.27C482,264.2,365.56,301,256,301z" />
                    </g>
               </g>
          </symbol>
          <symbol id="arrow" xmlns="http://www.w3.org/2000/svg" viewBox="0 0 480.026 480.026">
	          <g>
		          <path d="M475.922,229.325l-144-160c-3.072-3.392-7.36-5.312-11.904-5.312h-96c-6.304,0-12.032,3.712-14.624,9.472
			c-2.56,5.792-1.504,12.544,2.72,17.216l134.368,149.312l-134.368,149.28c-4.224,4.704-5.312,11.456-2.72,17.216
			c2.592,5.792,8.32,9.504,14.624,9.504h96c4.544,0,8.832-1.952,11.904-5.28l144-160
			C481.394,244.653,481.394,235.373,475.922,229.325z"/>
	          </g>
               <g>
		          <path d="M267.922,229.325l-144-160c-3.072-3.392-7.36-5.312-11.904-5.312h-96c-6.304,0-12.032,3.712-14.624,9.472
			c-2.56,5.792-1.504,12.544,2.72,17.216l134.368,149.312L4.114,389.293c-4.224,4.704-5.312,11.456-2.72,17.216
			c2.592,5.792,8.32,9.504,14.624,9.504h96c4.544,0,8.832-1.952,11.904-5.28l144-160
			C273.394,244.653,273.394,235.373,267.922,229.325z"/>
	          </g>
          </symbol>
</svg>